<?xml version="1.0" encoding="utf-8"?>
<!-- Generator: Adobe Illustrator 25.2.1, SVG Export Plug-In . SVG Version: 6.00 Build 0)  -->
<svg version="1.1" baseProfile="tiny" id="Layer_1" xmlns="http://www.w3.org/2000/svg" xmlns:xlink="http://www.w3.org/1999/xlink"
	 x="0px" y="0px" viewBox="0 0 170.3 88.6" overflow="visible" xml:space="preserve">
<g>
	<path d="M1002.2,443c0.3,0.8,0.5,1.6,0.5,2.6c0,0.3,0,0.5-0.5,1.2l-0.1-0.1c0.1-0.2,0.1-0.4,0.1-0.7c0-1.2-0.6-2.7-1.2-4.2
		c0.1-0.2,0.3-0.4,0.4-0.6h0.1c0.1,0.2,0.3,0.6,0.4,0.8c0.2,0.3,0.6,0.4,0.8,0.4c0.3,0,0.5-0.2,0.5-0.7c0-0.1,0-0.2,0-0.4
		c0.1,0,0.2-0.1,0.2-0.1c0.1,0.7,0.3,0.9,0.6,0.9c0.2,0,0.5-0.2,0.5-0.6c0-0.1,0-0.2,0-0.2c0.1,0,0.2,0,0.3,0c0,0.2,0,0.3,0,0.5
		c0,0.7-0.3,1.1-0.8,1.1c-0.2,0-0.4-0.1-0.6-0.2l0,0c-0.1,0.3-0.5,0.5-0.8,0.5C1002.5,443.1,1002.4,443.1,1002.2,443L1002.2,443z"/>
	<path d="M1008.2,446.7c-0.4-0.9-0.8-1.8-0.8-2.5c0-0.1,0-0.3,0-0.4c-0.2,0-0.4,0-0.6,0c-0.8,0-1.4-0.4-1.4-1.2
		c0-0.7,0.6-1.5,1.3-1.5c0.5,0,1,0.5,1,2c0,0.8,0.2,1.8,0.9,2.9C1008.5,446.4,1008.4,446.6,1008.2,446.7L1008.2,446.7z M1006.6,442
		c-0.4,0-0.7,0.3-0.7,0.5c0,0.4,0.7,0.6,1.2,0.6c0.1,0,0.2,0,0.2,0C1007.3,442.1,1006.8,442,1006.6,442z"/>
	<path d="M1012.1,441.2c-0.1,0.2-0.2,0.5-0.3,0.8c-0.8,0.4-1.4,0.8-1.4,0.9c0,0.2,0.6,0.6,1.6,0.6c0.1,0,0.3,0,0.4,0
		c-0.1,0.2-0.2,0.5-0.3,0.6c-0.8,0.4-1.4,0.9-1.4,1.2s0.4,0.6,1.2,0.6c0.3,0,0.8,0,1.2-0.3l0,0c-0.1,0.2-0.5,0.7-0.5,0.8
		c-0.1,0.1-0.6,0.2-1,0.2c-0.6,0-1.3-0.3-1.3-1.2c0-0.6,0.3-0.9,0.8-1.4c-0.7-0.1-1.1-0.4-1.1-0.9c0-0.4,0.1-0.8,0.4-1
		C1010.6,441.9,1011.4,441.4,1012.1,441.2L1012.1,441.2z"/>
	<path d="M1016.6,441.5c0,0.4-0.1,0.8-0.1,1.2c0,1,0.2,2.1,0.8,3.4c-0.2,0.2-0.4,0.4-0.6,0.7c-0.5-1.2-0.7-2.1-0.7-3.1
		c0-0.4,0.1-1.1,0.1-1.3c-0.3,0-1,0-1.2,0c-1,0-1-0.4-1-1.2h0.2c0.2,0.3,0.5,0.4,1.1,0.4C1015.5,441.6,1016,441.6,1016.6,441.5
		L1016.6,441.5z"/>
	<path d="M1020.1,445.4c0.3-1,0.9-3.1,1.4-4.3h0.1c0.2,0.3,0.3,0.5,0.4,0.7c-0.6,1.1-1.1,2.8-1.5,4.4c-0.1,0.1-0.3,0.3-0.4,0.4h-0.1
		c-0.3-1.4-1-3.2-2-4.9c0.2-0.2,0.3-0.4,0.5-0.6h0.1C1019.1,442.2,1019.8,444.4,1020.1,445.4L1020.1,445.4z"/>
	<path d="M1023.9,443.4c0.8,0.5,1.1,0.8,1.1,0.9c0,0.1-0.2,0.5-0.5,0.9c-0.4-0.3-0.8-0.6-1.1-0.8
		C1023.5,444,1023.7,443.7,1023.9,443.4z"/>
</g>
<g>
	<g>
		<g>
			<g>
				<path fill="#394670" d="M0,22.2C0,7.3,18.6,0,44.1,0s44.1,7.2,44.1,22.2v34.9c0,7.7-5.5,13.9-16.6,18.1c-1.2,0.4-1.5,2-0.5,2.9
					c2.1,1.7,5.2,4.4,7.6,6.3c1.2,1,0.5,2.9-1,3l-22.5,1.2c-0.5,0-1-0.1-1.3-0.5c-2.8-2.9-6-5.7-9-8.3c-0.3-0.3-0.7-0.4-1.1-0.4
					c-27-0.1-43.6-8.7-43.6-22.2V22.2C0.1,22.2,0,22.2,0,22.2z M34.2,58.7c0,2,0,7.1,9.9,7.1s9.9-5,9.9-7.1v-38c0-2.6,0-7.1-9.9-7.1
					s-9.9,4.4-9.9,7.1V58.7z"/>
			</g>
			<circle fill="#394670" cx="44.1" cy="39.7" r="35.3"/>
		</g>
		<g>
			<g>
				<path fill="#F0E1B1" d="M28.8,60.5L28.8,60.5c7-10.7,18.7-18,32.1-19.3c1.1-0.1,2-1,2-2.1V25.4c0-1.2-1.1-2.3-2.3-2.1
					C50.6,24.2,41.7,28.5,35,35c-4.1,3.9-6.9,8.9-8.2,14.5C25.9,53.3,26.7,57.3,28.8,60.5z"/>
				<path fill="#F0E1B1" d="M60.6,12.6C50.2,13.5,40.9,18.2,34,25.4c-5.2,5.3-7.9,12.4-7.9,19.7l0,0C32.5,31.8,45.6,22.2,61,20.9
					c1.1-0.1,1.9-0.9,1.9-2v-4.2C62.8,13.4,61.8,12.5,60.6,12.6z"/>
				<path fill="#F0E1B1" d="M35.9,20.4c0,0-9.9,7.3-9.9,14.2c0,0-0.4-11.3,2.8-14.8c4.9-5.5,9.6-6.8,13.5-15.3l0,0
					C42.5,5.7,44.7,14,35.9,20.4z"/>
			</g>
			<path fill="#F0E1B1" d="M29.5,60.8c-0.1,0.2-0.1,0.5,0,0.7c3.3,4.7,7.3,8.5,12.1,11.6c2.4,1.5,5.6-0.2,5.6-3.1V47.1
				c0-0.4-0.5-0.8-0.9-0.6C39.5,49.8,33.8,54.7,29.5,60.8z"/>
		</g>
	</g>
	<path fill="#394670" d="M157.5,51v-1.7c0-6.4,6.3-8.1,6.3-12.8c0-1.7-0.3-3.1-2.1-3.1c-1.5,0-2.1,1.6-2.1,3.6l0,0
		c0,1.2-0.9,2.1-2.1,2.1h-1.7c-1.2,0-2.1-0.9-2.1-2.1v-0.4c0-4.4,3.1-7.6,8.2-7.6s8.4,2.3,8.4,7.3c0,6.2-6.5,7.7-7.6,13.1
		c-0.2,1-1,1.7-2,1.7L157.5,51L157.5,51z M158.9,52.7h2.2c1.2,0,2.1,0.9,2.1,2.1v2.8c0,1.2-0.9,2.1-2.1,2.1h-2.2
		c-1.2,0-2.1-0.9-2.1-2.1v-2.8C156.9,53.6,157.8,52.7,158.9,52.7z"/>
	<g>
		<g>
			<path fill="#F0E1B1" d="M98,0.3h6.8c1.6,0,2.9,1.3,2.9,2.9v2.3c0,1.6-1.3,2.9-2.9,2.9H104c-1.6,0-2.9,1.3-2.9,2.9v2.5
				c0,1.6,1.3,2.9,2.9,2.9l0,0c1.6,0,2.9,1.3,2.9,2.9v2.3c0,1.6-1.3,2.9-2.9,2.9l0,0c-1.6,0-2.9,1.3-2.9,2.9v11.6
				c0,1.6-1.3,2.9-2.9,2.9H98c-1.6,0-2.9-1.3-2.9-2.9v-36C95.1,1.6,96.4,0.3,98,0.3z"/>
			<path fill="#F0E1B1" d="M112.7,0.3L112.7,0.3c1.5,0,2.8,1.2,2.8,2.8v36.2c0,1.5-1.2,2.8-2.8,2.8l0,0c-1.5,0-2.8-1.2-2.8-2.8V3.1
				C110,1.6,111.2,0.3,112.7,0.3z"/>
			<path fill="#F0E1B1" d="M118.6,16.8c0-3.9,1.3-9.5,6.9-9.5c5.6,0,6.9,5.6,6.9,9.5v1.1c0,4.5-3.6,8.1-8.1,8.1l0,0v7.2
				c0,1.2,0,2.7,1.3,2.7s1.3-1.6,1.3-2.7V29h5.6v3.6c0,3.9-1.3,9.5-6.9,9.5c-5.6,0-6.9-5.6-6.9-9.5L118.6,16.8L118.6,16.8z
				 M124.2,19.9h2.5v-3.6c0-1.2,0-2.7-1.3-2.7s-1.3,1.6-1.3,2.7L124.2,19.9L124.2,19.9z"/>
			<path fill="#F0E1B1" d="M138,24.1l-3.3-11.9c-0.5-1.7,0.9-3.5,2.7-3.5h0.2c1.4,0,2.5,0.9,2.8,2.3l1.1,6.5h0.1l1.1-6.5
				c0.2-1.3,1.4-2.3,2.8-2.3l0,0c1.8,0,3.1,1.7,2.7,3.5l-3.2,11.9c-0.1,0.4-0.1,0.9,0,1.5l3.4,13.2c0.4,1.7-0.9,3.5-2.7,3.5h-0.2
				c-1.4,0-2.5-1-2.8-2.3l-1.2-7.8h-0.1l-1.4,7.8c-0.2,1.3-1.4,2.3-2.7,2.3h-0.1c-1.8,0-3.1-1.7-2.7-3.5l3.6-13.1
				C138.2,25,138.2,24.5,138,24.1z"/>
		</g>
		<g>
			<path fill="#F0E1B1" d="M120.8,51h2.5c1.5,0,2.8,1.2,2.8,2.8l0,0c0,1.5-1.2,2.8-2.8,2.8h-2.5c-1.5,0-2.8-1.2-2.8-2.8l0,0
				C118,52.2,119.3,51,120.8,51z M120.8,58.5h2.5c1.5,0,2.8,1.2,2.8,2.8v24.3c0,1.5-1.2,2.8-2.8,2.8h-2.5c-1.5,0-2.8-1.2-2.8-2.8
				V61.2C118,59.7,119.3,58.5,120.8,58.5z"/>
			<path fill="#F0E1B1" d="M133.2,58.5h11.8c1.7,0,3.2,1.4,3.2,3.1v2c0,0.5-0.1,1.1-0.4,1.5l-6.7,12c-1.2,2.1,0.4,4.7,2.8,4.7h1.2
				c1.7,0,3.2,1.4,3.2,3.2l0,0c0,1.7-1.4,3.1-3.2,3.1h-12.1c-1.7,0-3.1-1.4-3.1-3.1v-2c0-0.5,0.1-1,0.4-1.5l6.5-12
				c1.2-2.1-0.4-4.7-2.8-4.7h-0.7c-1.7,0-3.1-1.4-3.1-3.1v-0.1C130,59.9,131.4,58.5,133.2,58.5z"/>
			<path fill="#F0E1B1" d="M113.3,61.2v24.3c-0.3,1.2-1.4,2.2-2.7,2.2h-2.4c-1.5-0.4-2.6-1.7-2.6-3.3h-0.1c-0.1,0.1-0.1,0.1-0.1,0.2
				c-1.4,2.4-3,3.7-6,3.7c-3.9,0-5.7-2.8-5.7-6.4V61.2c0-1.8,1.5-3.3,3.3-3.3h1.3c1.8,0,3.3,1.5,3.3,3.3v17.1c0,1.1,0,2.8,1.8,2.8
				c1.8,0,1.8-2.2,1.8-2.8V61.2c0-0.2,0-0.5,0.1-0.7c0.4-1.5,1.7-2.6,3.3-2.6h1.3C111.8,57.8,113.3,59.3,113.3,61.2z"/>
		</g>
	</g>
</g>
</svg>
